<svg xmlns="http://www.w3.org/2000/svg" xmlns:xlink="http://www.w3.org/1999/xlink" width="500" zoomAndPan="magnify" viewBox="0 0 375 374.999991" height="500" preserveAspectRatio="xMidYMid meet" version="1.2"><g id="a8b0e9ebd4"><path style=" stroke:none;fill-rule:nonzero;fill:#ea8000;fill-opacity:1;" d="M 346.289062 237.339844 C 321.152344 324.484375 229.757812 374.863281 142.117188 349.574219 C 54.328125 324.253906 3.71875 232.894531 28.851562 145.667969 C 53.929688 58.46875 145.355469 8.289062 233.167969 33.519531 C 320.695312 58.871094 371.484375 150.058594 346.289062 237.339844 Z M 346.289062 237.339844 "/><path style=" stroke:none;fill-rule:nonzero;fill:#ffdf00;fill-opacity:1;" d="M 346.089844 230.085938 C 320.753906 317.746094 229.269531 368.445312 141.601562 343.148438 C 53.902344 317.890625 3.257812 226.101562 28.59375 138.414062 C 53.902344 50.8125 145.355469 0.230469 233.167969 25.464844 C 320.695312 50.8125 371.453125 142.425781 346.089844 230.085938 Z M 346.089844 230.085938 "/><path style=" stroke:none;fill-rule:nonzero;fill:#ffea94;fill-opacity:1;" d="M 299 63.429688 L 29.367188 136.578125 C 29.167969 137.238281 28.792969 137.808594 28.59375 138.472656 C 22.402344 159.890625 20.882812 181.511719 23.207031 202.386719 L 337.460938 117.136719 C 328.378906 96.894531 315.421875 78.65625 299 63.429688 Z M 299 63.429688 "/><path style=" stroke:none;fill-rule:nonzero;fill:#ffea94;fill-opacity:1;" d="M 345.03125 135.601562 L 27.164062 221.828125 C 28.21875 226.238281 28.707031 230.832031 30.082031 235.132812 L 347.953125 148.882812 C 346.976562 144.460938 346.375 139.90625 345.03125 135.601562 Z M 345.03125 135.601562 "/><path style=" stroke:none;fill-rule:nonzero;fill:#ffbe00;fill-opacity:1;" d="M 306.964844 214.3125 C 287.9375 280.496094 218.867188 318.859375 152.890625 299.59375 C 86.742188 280.496094 48.539062 211.390625 67.597656 145.183594 C 86.742188 79.058594 155.785156 41.09375 221.847656 60.015625 C 287.9375 79.113281 326.058594 148.105469 306.964844 214.3125 Z M 306.964844 214.3125 "/><path style=" stroke:none;fill-rule:nonzero;fill:#faa400;fill-opacity:1;" d="M 152.890625 299.59375 C 218.867188 318.863281 287.9375 280.496094 306.964844 214.3125 C 313.5625 191.433594 317.542969 177.210938 311.695312 155.847656 L 73.246094 223.433594 C 84.710938 263.320312 110.074219 287.265625 152.890625 299.59375 Z M 152.890625 299.59375 "/><path style=" stroke:none;fill-rule:nonzero;fill:#ffffff;fill-opacity:1;" d="M 331.710938 154.109375 C 325.882812 96.789062 268.738281 59.515625 268.164062 59.144531 L 273.4375 50.914062 C 275.953125 52.523438 335.136719 91.152344 341.433594 153.121094 Z M 331.710938 154.109375 "/><path style=" stroke:none;fill-rule:nonzero;fill:#ffffff;fill-opacity:1;" d="M 159.957031 333.324219 C 69.40625 318.535156 42.042969 238.472656 41.777344 237.667969 L 51.0625 234.605469 L 46.417969 236.136719 L 51.058594 234.601562 C 51.308594 235.351562 76.972656 309.859375 161.53125 323.671875 Z M 159.957031 333.324219 "/><path style=" stroke:none;fill-rule:nonzero;fill:#ffffff;fill-opacity:1;" d="M 250.824219 43.84375 C 250.105469 46.226562 240.5625 45.25 229.445312 41.808594 C 218.46875 38.453125 210.183594 33.808594 210.84375 31.488281 C 211.589844 29.160156 221.105469 30.113281 232.136719 33.492188 C 243.054688 36.875 251.511719 41.550781 250.824219 43.84375 Z M 250.824219 43.84375 "/><path style=" stroke:none;fill-rule:nonzero;fill:#f69000;fill-opacity:1;" d="M 187.546875 307.53125 C 175.585938 307.53125 163.648438 305.816406 152.0625 302.433594 C 84.453125 282.914062 45.289062 212.003906 64.757812 144.359375 C 80.46875 90.09375 130.894531 52.195312 187.378906 52.195312 C 199.257812 52.195312 211.132812 53.871094 222.664062 57.171875 C 290.203125 76.6875 329.296875 147.550781 309.808594 215.136719 C 294.164062 269.535156 243.890625 307.53125 187.546875 307.53125 Z M 187.378906 58.113281 C 133.507812 58.113281 85.421875 94.253906 70.4375 146.003906 C 51.871094 210.507812 89.226562 278.132812 153.710938 296.75 C 164.765625 299.980469 176.148438 301.617188 187.546875 301.617188 C 241.269531 301.617188 289.207031 265.382812 304.125 213.5 C 322.707031 149.046875 285.429688 81.46875 221.027344 62.863281 C 210.035156 59.710938 198.710938 58.113281 187.378906 58.113281 Z M 187.378906 58.113281 "/><path style=" stroke:none;fill-rule:nonzero;fill:#faa400;fill-opacity:1;" d="M 187.914062 91.414062 C 189.546875 88.09375 192.300781 88.09375 193.933594 91.414062 L 218.4375 141.167969 C 220.070312 144.492188 224.425781 147.675781 228.09375 148.21875 L 282.980469 156.21875 C 286.648438 156.765625 287.480469 159.257812 284.816406 161.894531 L 245.121094 200.554688 C 242.453125 203.191406 240.820312 208.292969 241.394531 211.9375 L 250.824219 266.589844 C 251.425781 270.289062 249.246094 271.839844 246.007812 270.117188 L 196.886719 244.3125 C 193.617188 242.589844 188.261719 242.589844 184.964844 244.3125 L 135.839844 270.117188 C 132.601562 271.839844 130.421875 270.289062 131.082031 266.589844 L 140.453125 211.9375 C 141.054688 208.292969 139.394531 203.191406 136.753906 200.554688 L 97.03125 161.898438 C 94.394531 159.257812 95.199219 156.765625 98.867188 156.21875 L 153.753906 148.222656 C 157.476562 147.679688 161.777344 144.492188 163.4375 141.167969 Z M 187.914062 91.414062 "/><path style=" stroke:none;fill-rule:nonzero;fill:#ffffa4;fill-opacity:1;" d="M 184.792969 95.171875 C 186.25 92.21875 188.574219 92.21875 190.035156 95.171875 L 211.53125 138.8125 C 212.992188 141.738281 216.804688 144.492188 220.042969 145.011719 L 268.191406 152.003906 C 271.457031 152.496094 272.175781 154.703125 269.851562 157.023438 L 234.972656 190.976562 C 232.625 193.269531 231.191406 197.769531 231.734375 200.953125 L 239.992188 248.925781 C 240.53125 252.140625 238.585938 253.542969 235.746094 252.054688 L 192.613281 229.34375 C 189.777344 227.847656 185.046875 227.847656 182.183594 229.34375 L 139.046875 252.054688 C 136.207031 253.542969 134.292969 252.140625 134.835938 248.925781 L 143.058594 200.953125 C 143.605469 197.769531 142.171875 193.269531 139.820312 190.976562 L 104.972656 157.023438 C 102.625 154.703125 103.367188 152.496094 106.605469 152.003906 L 154.78125 145.011719 C 158.019531 144.492188 161.804688 141.742188 163.265625 138.8125 Z M 184.792969 95.171875 "/></g></svg>