<svg xmlns="http://www.w3.org/2000/svg" xmlns:xlink="http://www.w3.org/1999/xlink" width="500" zoomAndPan="magnify" viewBox="0 0 375 374.999991" height="500" preserveAspectRatio="xMidYMid meet" version="1.2"><defs><clipPath id="8bbbbfa8cc"><path d="M 4.667969 4.667969 L 370.667969 4.667969 L 370.667969 370.667969 L 4.667969 370.667969 Z M 4.667969 4.667969 "/></clipPath></defs><g id="ddf15b4138"><g clip-rule="nonzero" clip-path="url(#8bbbbfa8cc)"><path style=" stroke:none;fill-rule:nonzero;fill:#fff80c;fill-opacity:1;" d="M 370.667969 187.667969 C 370.667969 288.738281 288.738281 370.667969 187.667969 370.667969 C 86.601562 370.667969 4.667969 288.738281 4.667969 187.667969 C 4.667969 86.601562 86.601562 4.667969 187.667969 4.667969 C 288.738281 4.667969 370.667969 86.601562 370.667969 187.667969 "/></g><path style=" stroke:none;fill-rule:nonzero;fill:#ffda03;fill-opacity:1;" d="M 367.488281 188.464844 C 367.488281 287.332031 287.332031 367.484375 188.464844 367.484375 C 89.59375 367.484375 9.441406 287.332031 9.441406 188.464844 C 9.441406 89.589844 89.59375 9.441406 188.464844 9.441406 C 287.335938 9.441406 367.488281 89.589844 367.488281 188.464844 "/><path style=" stroke:none;fill-rule:nonzero;fill:#ed9e00;fill-opacity:1;" d="M 328.949219 186.378906 C 328.949219 265.269531 264.996094 329.21875 186.105469 329.21875 C 107.21875 329.21875 43.265625 265.269531 43.265625 186.378906 C 43.265625 107.492188 107.21875 43.535156 186.105469 43.535156 C 264.996094 43.535156 328.949219 107.492188 328.949219 186.378906 "/><path style=" stroke:none;fill-rule:nonzero;fill:#f4b400;fill-opacity:1;" d="M 326.121094 189.402344 C 326.121094 264.914062 264.910156 326.121094 189.40625 326.121094 C 113.898438 326.121094 52.679688 264.914062 52.679688 189.402344 C 52.679688 113.894531 113.898438 52.679688 189.40625 52.679688 C 264.910156 52.679688 326.121094 113.894531 326.121094 189.402344 "/><path style=" stroke:none;fill-rule:nonzero;fill:#ed9e00;fill-opacity:1;" d="M 196.621094 96.542969 L 221.582031 144.109375 C 222.5 145.863281 224.1875 147.085938 226.140625 147.421875 L 279.085938 156.457031 C 284.136719 157.320312 286.144531 163.496094 282.566406 167.160156 L 245.042969 205.59375 C 243.65625 207.011719 243.011719 208.996094 243.296875 210.953125 L 251.066406 264.101562 C 251.808594 269.171875 246.554688 272.988281 241.960938 270.714844 L 193.8125 246.90625 C 192.039062 246.027344 189.953125 246.027344 188.179688 246.90625 L 140.03125 270.714844 C 135.441406 272.988281 130.183594 269.171875 130.925781 264.101562 L 138.695312 210.953125 C 138.980469 208.996094 138.335938 207.011719 136.953125 205.59375 L 99.425781 167.160156 C 95.847656 163.496094 97.855469 157.320312 102.90625 156.457031 L 155.851562 147.421875 C 157.804688 147.085938 159.492188 145.863281 160.414062 144.109375 L 185.371094 96.542969 C 187.75 92.003906 194.242188 92.003906 196.621094 96.542969 "/><path style=" stroke:none;fill-rule:nonzero;fill:#fff80c;fill-opacity:1;" d="M 189.96875 89.890625 L 214.925781 137.453125 C 215.84375 139.207031 217.53125 140.433594 219.484375 140.765625 L 272.433594 149.800781 C 277.480469 150.664062 279.488281 156.84375 275.914062 160.507812 L 238.386719 198.941406 C 237 200.355469 236.359375 202.335938 236.644531 204.300781 L 244.414062 257.449219 C 245.152344 262.515625 239.898438 266.332031 235.304688 264.0625 L 187.160156 240.253906 C 185.382812 239.375 183.300781 239.375 181.523438 240.253906 L 133.375 264.0625 C 128.785156 266.332031 123.53125 262.515625 124.269531 257.449219 L 132.035156 204.300781 C 132.324219 202.335938 131.679688 200.355469 130.296875 198.941406 L 92.773438 160.507812 C 89.195312 156.84375 91.203125 150.664062 96.25 149.800781 L 149.199219 140.765625 C 151.152344 140.433594 152.835938 139.207031 153.757812 137.453125 L 178.714844 89.890625 C 181.09375 85.351562 187.589844 85.351562 189.96875 89.890625 "/><path style=" stroke:none;fill-rule:nonzero;fill:#ffda03;fill-opacity:1;" d="M 193.296875 93.214844 L 218.253906 140.78125 C 219.171875 142.535156 220.859375 143.761719 222.8125 144.09375 L 275.761719 153.128906 C 280.808594 153.992188 282.816406 160.167969 279.238281 163.832031 L 241.714844 202.265625 C 240.332031 203.683594 239.6875 205.664062 239.972656 207.625 L 247.738281 260.773438 C 248.480469 265.84375 243.226562 269.660156 238.632812 267.390625 L 190.484375 243.582031 C 188.710938 242.699219 186.628906 242.699219 184.851562 243.582031 L 136.703125 267.390625 C 132.109375 269.660156 126.859375 265.84375 127.597656 260.773438 L 135.367188 207.625 C 135.652344 205.664062 135.007812 203.683594 133.625 202.265625 L 96.101562 163.832031 C 92.519531 160.167969 94.527344 153.992188 99.578125 153.128906 L 152.527344 144.09375 C 154.480469 143.761719 156.164062 142.535156 157.085938 140.78125 L 182.042969 93.214844 C 184.421875 88.679688 190.917969 88.679688 193.296875 93.214844 "/></g></svg>